# xmcd
#
# Track frame offsets: 
#        150
#        14359
#        25040
#        39820
#        55882
#        69132
#        83515
#        96467
#        108695
#        122655
#        136770
#        154355
#        172395
#        187157
#
# Disc length: 2691 seconds
#
# Revision: 3
# Processed by: cddbd v1.5.2PL0 Copyright (c) Steve Scherf et al.
# Submitted via: ExactAudioCopy v1.0b4
#
DISCID=b80a810e
DTITLE=Altemar Dutra - O Melhor de Altemar Dutra 
DYEAR=1997
DGENRE=Other
TTITLE0=Modinha
TTITLE1=Sentimental Demais
TTITLE2=Malandrinha
TTITLE3=Pra Que Mentir
TTITLE4=Amor de Pobre
TTITLE5=Brigas
TTITLE6=O Trovador
TTITLE7=Que Queres Tu de Mim
TTITLE8=Sol de Primavera
TTITLE9=As Vitrines
TTITLE10=Alma
TTITLE11=Serra da Boa Esperança
TTITLE12=Franqueza
TTITLE13=Estão Voltando as Flores - Bandeira Branca
EXTD=
EXTT0=
EXTT1=
EXTT2=
EXTT3=
EXTT4=
EXTT5=
EXTT6=
EXTT7=
EXTT8=
EXTT9=
EXTT10=
EXTT11=
EXTT12=
EXTT13=
PLAYORDER=
